<?xml version="1.0" standalone="no"?>
<!DOCTYPE svg PUBLIC "-//W3C//DTD SVG 20010904//EN"
 "http://www.w3.org/TR/2001/REC-SVG-20010904/DTD/svg10.dtd">
<svg version="1.0" xmlns="http://www.w3.org/2000/svg"
 width="3264.000000pt" height="3264.000000pt" viewBox="0 0 3264.000000 3264.000000"
 preserveAspectRatio="xMidYMid meet">

<g transform="translate(0.000000,3264.000000) scale(0.100000,-0.100000)"
fill="#000000" stroke="none">
<path d="M6553 21233 c-7 -2 -13 -16 -13 -29 0 -28 -1 -28 -95 -42 -283 -42
-430 -67 -495 -83 -333 -82 -414 -105 -550 -152 -191 -68 -215 -77 -370 -144
-125 -55 -348 -166 -450 -224 -572 -324 -1101 -791 -1492 -1318 -62 -84 -241
-354 -301 -456 -60 -103 -217 -403 -217 -417 0 -3 -18 -44 -39 -90 -60 -126
-115 -273 -197 -528 -24 -76 -101 -384 -124 -495 -6 -33 -15 -78 -20 -100 -5
-22 -13 -73 -19 -112 -7 -40 -16 -101 -22 -135 -41 -261 -62 -847 -40 -1150
48 -648 206 -1234 486 -1803 467 -948 1216 -1703 2155 -2169 447 -222 767
-327 1390 -455 338 -69 422 -84 575 -103 161 -19 18802 -19 18975 0 124 14
587 87 809 128 628 116 1249 369 1791 730 803 534 1445 1329 1840 2280 71 170
178 486 210 619 11 50 25 106 30 125 5 19 14 58 20 85 6 28 15 66 20 85 14 57
28 138 45 260 8 63 20 147 27 185 15 100 23 889 10 990 -6 44 -16 136 -22 205
-5 69 -15 152 -20 185 -19 111 -45 244 -59 300 -22 86 -30 122 -40 166 -19 88
-60 225 -111 369 -28 80 -58 165 -67 190 -8 25 -30 77 -48 116 -19 40 -47 103
-64 141 -53 121 -164 330 -255 478 -287 472 -628 866 -1056 1221 -465 385
-1005 680 -1605 876 -99 32 -483 127 -580 144 -49 8 -117 20 -150 25 -98 17
-213 30 -325 37 -113 8 -130 13 -130 42 0 10 -7 21 -16 24 -19 7 -19373 7
-19391 -1z m14585 -63 c4642 0 4752 0 4752 -19 0 -35 27 -44 168 -52 132 -8
226 -19 342 -40 141 -26 168 -31 210 -40 25 -6 61 -14 80 -19 19 -5 91 -23
160 -41 69 -17 141 -35 160 -39 31 -8 165 -54 345 -120 71 -25 83 -30 155 -63
30 -13 80 -35 110 -48 167 -71 559 -291 695 -389 28 -20 82 -58 120 -85 39
-27 84 -60 101 -74 17 -14 60 -48 95 -76 236 -184 538 -484 740 -735 155 -193
351 -485 463 -690 91 -167 217 -434 260 -550 15 -41 37 -100 48 -130 11 -30
24 -64 28 -75 21 -50 52 -151 84 -275 19 -74 42 -160 50 -190 14 -56 44 -200
65 -320 12 -67 24 -167 43 -370 14 -149 15 -672 0 -820 -21 -225 -32 -326 -42
-370 -5 -25 -14 -76 -21 -115 -7 -38 -23 -113 -37 -165 -13 -52 -27 -111 -32
-130 -31 -141 -101 -366 -150 -485 -5 -11 -22 -56 -38 -100 -50 -132 -184
-418 -269 -570 -173 -310 -398 -622 -632 -879 -101 -110 -341 -345 -424 -414
-529 -443 -995 -705 -1652 -931 -119 -41 -472 -132 -585 -151 -36 -6 -87 -15
-115 -20 -114 -20 -197 -30 -330 -39 -166 -12 -195 -20 -195 -56 l0 -25 -2468
0 c-1358 0 -5696 3 -9640 7 l-7172 6 0 33 c0 27 -5 35 -22 38 -55 11 -169 26
-238 31 -41 4 -91 10 -110 15 -19 5 -80 16 -135 26 -92 15 -163 32 -305 71
-30 8 -68 18 -85 23 -103 28 -149 41 -220 65 -44 14 -95 33 -114 42 -19 8 -75
30 -125 48 -119 43 -419 183 -551 258 -22 12 -71 40 -110 61 -256 144 -596
396 -822 611 -127 120 -351 347 -370 375 -9 14 -35 45 -57 71 -64 71 -82 93
-169 212 -129 176 -144 197 -199 285 -76 119 -83 132 -169 289 -73 133 -90
167 -149 298 -12 28 -35 77 -51 110 -15 33 -39 94 -54 135 -15 41 -31 85 -36
98 -5 12 -14 34 -20 50 -6 15 -15 35 -20 44 -5 10 -9 27 -9 37 0 11 -4 22 -9
25 -5 3 -11 18 -14 33 -3 16 -24 98 -47 183 -23 85 -46 171 -50 190 -5 19 -14
55 -20 80 -21 83 -39 200 -71 445 -43 340 -43 787 0 1125 6 41 15 111 20 155
16 123 30 199 63 335 68 280 123 475 140 494 4 6 8 18 8 28 0 10 4 26 9 36 14
27 27 60 61 152 68 184 271 591 375 750 166 256 317 465 418 576 26 29 61 70
76 91 57 78 429 430 576 546 33 26 89 70 124 98 36 28 99 74 140 102 42 28 81
55 86 59 71 61 520 306 750 410 172 77 447 173 660 228 114 30 139 37 238 60
46 11 105 22 207 39 36 6 76 13 90 16 14 3 68 10 120 15 183 20 184 20 190 60
l5 35 4790 6 c2635 3 4833 4 4885 2 52 -1 2234 -3 4848 -3z"/>
</g>
</svg>
